<?xml version="1.0" encoding="utf-8"?>
<!-- Generator: Adobe Illustrator 28.2.0, SVG Export Plug-In . SVG Version: 6.00 Build 0)  -->
<svg version="1.1" id="Camada_1" xmlns="http://www.w3.org/2000/svg" xmlns:xlink="http://www.w3.org/1999/xlink" x="0px" y="0px"
	 viewBox="0 0 600 350" style="enable-background:new 0 0 600 350;" xml:space="preserve">
<style type="text/css">
	.st0{fill:#50D493;}
</style>
<g>
	<path class="st0" d="M171.2,213h-139c-7.6,0-13.8-6.2-13.8-13.8v-12.3c0-7.6,6.2-13.8,13.8-13.8h139c7.6,0,13.8,6.2,13.8,13.8v12.3
		C184.9,206.8,178.8,213,171.2,213z M32.1,178.3c-4.8,0-8.6,3.9-8.6,8.6v12.3c0,4.8,3.9,8.6,8.6,8.6h139c4.8,0,8.6-3.9,8.6-8.6
		v-12.3c0-4.8-3.9-8.6-8.6-8.6H32.1z"/>
	<path class="st0" d="M171.2,178.3h-139c-7.6,0-13.8-6.2-13.8-13.8v-12.3c0-7.6,6.2-13.8,13.8-13.8h139c7.6,0,13.8,6.2,13.8,13.8
		v12.3C184.9,172.1,178.8,178.3,171.2,178.3z M32.1,143.6c-4.8,0-8.6,3.9-8.6,8.6v12.3c0,4.8,3.9,8.6,8.6,8.6h139
		c4.8,0,8.6-3.9,8.6-8.6v-12.3c0-4.8-3.9-8.6-8.6-8.6H32.1z"/>
	<path class="st0" d="M171.2,143.6h-139c-7.6,0-13.8-6.2-13.8-13.8v-12.3c0-7.6,6.2-13.8,13.8-13.8h139c7.6,0,13.8,6.2,13.8,13.8
		v12.3C184.9,137.4,178.8,143.6,171.2,143.6z M32.1,108.8c-4.8,0-8.6,3.9-8.6,8.6v12.3c0,4.8,3.9,8.6,8.6,8.6h139
		c4.8,0,8.6-3.9,8.6-8.6v-12.3c0-4.8-3.9-8.6-8.6-8.6H32.1z"/>
	<path class="st0" d="M74.7,247.4H61.6c-7,0-12.8-5.7-12.8-12.8V85.3c0-7,5.7-12.8,12.8-12.8h13.1c7,0,12.8,5.7,12.8,12.8v149.4
		C87.5,241.7,81.8,247.4,74.7,247.4z M61.6,77.6c-4.2,0-7.6,3.4-7.6,7.6v149.4c0,4.2,3.4,7.6,7.6,7.6h13.1c4.2,0,7.6-3.4,7.6-7.6
		V85.3c0-4.2-3.4-7.6-7.6-7.6H61.6z"/>
	<path class="st0" d="M108.2,247.4H95.1c-7,0-12.8-5.7-12.8-12.8V85.3c0-7,5.7-12.8,12.8-12.8h13.1c7,0,12.8,5.7,12.8,12.8v149.4
		C121,241.7,115.3,247.4,108.2,247.4z M95.1,77.6c-4.2,0-7.6,3.4-7.6,7.6v149.4c0,4.2,3.4,7.6,7.6,7.6h13.1c4.2,0,7.6-3.4,7.6-7.6
		V85.3c0-4.2-3.4-7.6-7.6-7.6H95.1z"/>
	<path class="st0" d="M141.7,247.4h-13.1c-7,0-12.8-5.7-12.8-12.8V85.3c0-7,5.7-12.8,12.8-12.8h13.1c7,0,12.8,5.7,12.8,12.8v149.4
		C154.5,241.7,148.7,247.4,141.7,247.4z M128.6,77.6c-4.2,0-7.6,3.4-7.6,7.6v149.4c0,4.2,3.4,7.6,7.6,7.6h13.1
		c4.2,0,7.6-3.4,7.6-7.6V85.3c0-4.2-3.4-7.6-7.6-7.6H128.6z"/>
</g>
<g>
	<path class="st0" d="M271.5,184.6c0,7.1-1.6,12.7-4.7,16.9c-3.1,4.2-7.3,6.2-12.6,6.2c-6.2,0-11-2.2-14.3-6.6v23.2h-5v-63h4.7
		l0.2,6.4c3.3-4.9,8-7.3,14.2-7.3c5.4,0,9.7,2.1,12.8,6.2c3.1,4.1,4.6,9.8,4.6,17.1L271.5,184.6L271.5,184.6z M266.5,183.7
		c0-5.8-1.2-10.4-3.6-13.8c-2.4-3.4-5.7-5-10-5c-3.1,0-5.7,0.7-7.9,2.2c-2.2,1.5-3.9,3.6-5.1,6.5v21.8c1.2,2.6,2.9,4.6,5.2,6
		s4.9,2.1,7.9,2.1c4.2,0,7.5-1.7,9.9-5.1C265.3,195,266.5,190.1,266.5,183.7z"/>
	<path class="st0" d="M279.9,183.4c0-4.4,0.9-8.3,2.5-11.8c1.7-3.5,4.1-6.2,7.2-8.2s6.6-2.9,10.5-2.9c6,0,11,2.1,14.7,6.4
		s5.6,9.9,5.6,16.9v1.1c0,4.4-0.9,8.4-2.5,11.9c-1.7,3.5-4.1,6.2-7.2,8.1c-3.1,1.9-6.6,2.9-10.5,2.9c-6,0-10.9-2.1-14.7-6.4
		s-5.6-9.9-5.6-16.9L279.9,183.4L279.9,183.4z M284.9,184.8c0,5.4,1.4,9.9,4.2,13.4s6.5,5.2,11.1,5.2c4.5,0,8.2-1.7,11-5.2
		c2.8-3.5,4.2-8.1,4.2-13.8v-1c0-3.5-0.6-6.7-1.9-9.5c-1.3-2.9-3.1-5.1-5.4-6.7c-2.3-1.6-5-2.4-8-2.4c-4.5,0-8.1,1.8-11,5.3
		c-2.8,3.5-4.2,8.1-4.2,13.8L284.9,184.8L284.9,184.8z"/>
	<path class="st0" d="M336.5,206.9h-5v-64.6h5V206.9z"/>
	<path class="st0" d="M364.6,199.6l13.3-38.3h5.4l-19.4,53.2l-1,2.4c-2.5,5.5-6.4,8.3-11.6,8.3c-1.2,0-2.5-0.2-3.9-0.6l0-4.2
		l2.6,0.2c2.5,0,4.5-0.6,6-1.8s2.8-3.3,3.9-6.3l2.2-6.1L345,161.4h5.5L364.6,199.6z"/>
	<path class="st0" d="M388.5,183.7c0-7.1,1.6-12.8,4.7-16.9c3.2-4.2,7.4-6.2,12.8-6.2c6.2,0,10.9,2.5,14.1,7.4l0.2-6.6h4.7v44.6
		c0,5.9-1.6,10.5-4.9,13.9s-7.7,5.1-13.3,5.1c-3.2,0-6.2-0.7-9.1-2.1s-5.1-3.3-6.8-5.6l2.8-3c3.6,4.4,7.8,6.6,12.7,6.6
		c4.2,0,7.5-1.2,9.8-3.7s3.6-5.9,3.7-10.3V201c-3.2,4.5-7.9,6.7-14.1,6.7c-5.3,0-9.5-2.1-12.7-6.3s-4.8-9.9-4.8-17L388.5,183.7
		L388.5,183.7z M393.6,184.6c0,5.8,1.2,10.4,3.5,13.7c2.3,3.4,5.6,5,9.8,5c6.2,0,10.6-2.8,13.2-8.3v-21.1c-1.2-2.9-2.9-5.1-5.1-6.7
		c-2.2-1.5-4.9-2.3-8-2.3c-4.2,0-7.5,1.7-9.9,5C394.8,173.2,393.6,178.1,393.6,184.6z"/>
	<path class="st0" d="M443.9,206.9h-5v-64.6h5V206.9z"/>
	<path class="st0" d="M454.8,183.4c0-4.4,0.9-8.3,2.5-11.8c1.7-3.5,4.1-6.2,7.2-8.2s6.6-2.9,10.5-2.9c6,0,11,2.1,14.7,6.4
		s5.6,9.9,5.6,16.9v1.1c0,4.4-0.9,8.4-2.5,11.9c-1.7,3.5-4.1,6.2-7.2,8.1c-3.1,1.9-6.6,2.9-10.5,2.9c-6,0-10.9-2.1-14.7-6.4
		s-5.6-9.9-5.6-16.9L454.8,183.4L454.8,183.4z M459.9,184.8c0,5.4,1.4,9.9,4.2,13.4s6.5,5.2,11.1,5.2c4.5,0,8.2-1.7,11-5.2
		c2.8-3.5,4.2-8.1,4.2-13.8v-1c0-3.5-0.6-6.7-1.9-9.5c-1.3-2.9-3.1-5.1-5.4-6.7c-2.3-1.6-5-2.4-8-2.4c-4.5,0-8.1,1.8-11,5.3
		c-2.8,3.5-4.2,8.1-4.2,13.8L459.9,184.8L459.9,184.8z"/>
	<path class="st0" d="M513.7,149.7v11.6h9.4v4.1h-9.4v30.3c0,2.5,0.5,4.4,1.4,5.6c0.9,1.2,2.4,1.9,4.6,1.9c0.8,0,2.2-0.1,4.1-0.4
		l0.2,4.1c-1.3,0.5-3.1,0.7-5.4,0.7c-3.5,0-6-1-7.5-3c-1.6-2-2.4-4.9-2.4-8.9v-30.4h-8.4v-4.1h8.4v-11.7
		C508.6,149.7,513.7,149.7,513.7,149.7z"/>
</g>
<g>
	<path class="st0" d="M261.6,124c-0.1,2.4-0.8,4.5-2,6.4c-1.2,1.8-3,3.3-5.2,4.3c-2.2,1-4.8,1.5-7.7,1.5c-4.7,0-8.5-1.5-11.2-4.4
		c-2.7-3-4.1-7.1-4.1-12.5v-1.7c0-3.4,0.6-6.4,1.8-8.9c1.2-2.5,3-4.5,5.3-5.9c2.3-1.4,5-2.1,8-2.1c4.4,0,7.9,1.1,10.5,3.3
		c2.7,2.2,4.2,5.2,4.5,9.1H253c-0.1-2.1-0.6-3.6-1.7-4.5c-1-0.9-2.6-1.4-4.8-1.4c-2.2,0-3.7,0.8-4.8,2.3c-1,1.6-1.5,4-1.6,7.4v2.4
		c0,3.7,0.5,6.3,1.5,7.9c1,1.6,2.6,2.4,5,2.4c2,0,3.5-0.4,4.6-1.4c1.1-0.9,1.6-2.3,1.7-4.3L261.6,124L261.6,124z"/>
	<path class="st0" d="M286.2,129.3h-11.9l-2.1,6.5H263l13.2-34.6h8.2l13.3,34.6h-9.3L286.2,129.3z M276.4,122.8h7.7l-3.9-12
		L276.4,122.8z"/>
	<path class="st0" d="M309,129.3h15.1v6.4h-23.8v-34.6h8.7V129.3z"/>
	<path class="st0" d="M339.2,101.1l8,24.1l8-24.1h11.4v34.6H358v-8.1l0.8-16.5l-8.7,24.6h-5.7l-8.7-24.6l0.8,16.6v8.1h-8.7v-34.6
		L339.2,101.1L339.2,101.1z"/>
	<path class="st0" d="M390.9,126.5c0-1.2-0.4-2.2-1.3-2.9c-0.9-0.7-2.5-1.4-4.7-2.1c-2.3-0.7-4.1-1.4-5.6-2.1c-4.7-2.2-7-5.2-7-9.1
		c0-1.9,0.6-3.6,1.7-5.1c1.2-1.5,2.8-2.6,4.9-3.4c2.1-0.8,4.5-1.2,7.2-1.2c2.6,0,4.9,0.4,7,1.3c2.1,0.9,3.7,2.1,4.8,3.8
		c1.1,1.6,1.7,3.5,1.7,5.6h-8.7c0-1.4-0.4-2.5-1.3-3.3c-0.9-0.8-2.1-1.2-3.7-1.2c-1.5,0-2.8,0.3-3.7,1s-1.3,1.5-1.3,2.5
		c0,0.9,0.5,1.7,1.5,2.4c1,0.7,2.7,1.5,5.2,2.2c2.5,0.8,4.5,1.6,6.1,2.5c3.9,2.1,5.8,5.1,5.8,8.9c0,3-1.2,5.4-3.6,7.1
		c-2.4,1.7-5.6,2.6-9.8,2.6c-2.9,0-5.6-0.5-7.9-1.5c-2.4-1-4.2-2.4-5.4-4.1s-1.8-3.8-1.8-6h8.7c0,1.9,0.5,3.2,1.5,4.1
		c1,0.9,2.6,1.3,4.9,1.3c1.4,0,2.6-0.3,3.4-0.9C390.4,128.4,390.9,127.6,390.9,126.5z"/>
	<path class="st0" d="M432.3,107.6h-10.8v28.1h-8.7v-28.1h-10.6v-6.4h30.1L432.3,107.6L432.3,107.6z"/>
	<path class="st0" d="M453.5,129.3h-11.9l-2.1,6.5h-9.3l13.2-34.6h8.2l13.3,34.6h-9.3L453.5,129.3z M443.7,122.8h7.7l-3.9-12
		L443.7,122.8z"/>
	<path class="st0" d="M492.9,107.6h-10.8v28.1h-8.7v-28.1h-10.6v-6.4h30.1L492.9,107.6L492.9,107.6z"/>
	<path class="st0" d="M518.9,121h-13.7v8.3h16.1v6.4h-24.8v-34.6h24.9v6.4h-16.2v7.3h13.7V121z"/>
</g>
</svg>
