<?xml version="1.0" encoding="utf-8"?>
<!-- Generator: Adobe Illustrator 28.2.0, SVG Export Plug-In . SVG Version: 6.00 Build 0)  -->
<svg version="1.1" id="Camada_1" xmlns="http://www.w3.org/2000/svg" xmlns:xlink="http://www.w3.org/1999/xlink" x="0px" y="0px"
	 viewBox="0 0 600 350" style="enable-background:new 0 0 600 350;" xml:space="preserve">
<style type="text/css">
	.st0{fill:#50D493;}
</style>
<g>
	<path class="st0" d="M216.6,217.4h-99.4c-5.4,0-9.8-4.4-9.8-9.8v-8.8c0-5.4,4.4-9.8,9.8-9.8h99.4c5.4,0,9.8,4.4,9.8,9.8v8.8
		C226.4,212.9,222,217.4,216.6,217.4z M117.2,192.5c-3.4,0-6.2,2.8-6.2,6.2v8.8c0,3.4,2.8,6.2,6.2,6.2h99.4c3.4,0,6.2-2.8,6.2-6.2
		v-8.8c0-3.4-2.8-6.2-6.2-6.2H117.2z"/>
	<path class="st0" d="M216.6,192.5h-99.4c-5.4,0-9.8-4.4-9.8-9.8v-8.8c0-5.4,4.4-9.8,9.8-9.8h99.4c5.4,0,9.8,4.4,9.8,9.8v8.8
		C226.4,188.1,222,192.5,216.6,192.5z M117.2,167.7c-3.4,0-6.2,2.8-6.2,6.2v8.8c0,3.4,2.8,6.2,6.2,6.2h99.4c3.4,0,6.2-2.8,6.2-6.2
		v-8.8c0-3.4-2.8-6.2-6.2-6.2H117.2z"/>
	<path class="st0" d="M216.6,167.7h-99.4c-5.4,0-9.8-4.4-9.8-9.8v-8.8c0-5.4,4.4-9.8,9.8-9.8h99.4c5.4,0,9.8,4.4,9.8,9.8v8.8
		C226.4,163.3,222,167.7,216.6,167.7z M117.2,142.9c-3.4,0-6.2,2.8-6.2,6.2v8.8c0,3.4,2.8,6.2,6.2,6.2h99.4c3.4,0,6.2-2.8,6.2-6.2
		v-8.8c0-3.4-2.8-6.2-6.2-6.2H117.2z"/>
	<path class="st0" d="M147.7,242h-9.4c-5,0-9.1-4.1-9.1-9.1V126.1c0-5,4.1-9.1,9.1-9.1h9.4c5,0,9.1,4.1,9.1,9.1v106.8
		C156.8,237.9,152.7,242,147.7,242z M138.3,120.6c-3,0-5.4,2.4-5.4,5.4v106.8c0,3,2.4,5.4,5.4,5.4h9.4c3,0,5.4-2.4,5.4-5.4V126.1
		c0-3-2.4-5.4-5.4-5.4H138.3z"/>
	<path class="st0" d="M171.6,242h-9.4c-5,0-9.1-4.1-9.1-9.1V126.1c0-5,4.1-9.1,9.1-9.1h9.4c5,0,9.1,4.1,9.1,9.1v106.8
		C180.7,237.9,176.6,242,171.6,242z M162.2,120.6c-3,0-5.4,2.4-5.4,5.4v106.8c0,3,2.4,5.4,5.4,5.4h9.4c3,0,5.4-2.4,5.4-5.4V126.1
		c0-3-2.4-5.4-5.4-5.4H162.2z"/>
	<path class="st0" d="M195.5,242h-9.4c-5,0-9.1-4.1-9.1-9.1V126.1c0-5,4.1-9.1,9.1-9.1h9.4c5,0,9.1,4.1,9.1,9.1v106.8
		C204.6,237.9,200.5,242,195.5,242z M186.2,120.6c-3,0-5.4,2.4-5.4,5.4v106.8c0,3,2.4,5.4,5.4,5.4h9.4c3,0,5.4-2.4,5.4-5.4V126.1
		c0-3-2.4-5.4-5.4-5.4H186.2z"/>
</g>
<g>
	<path class="st0" d="M288.3,197c0,5.1-1.1,9.1-3.4,12.1c-2.2,3-5.2,4.5-9,4.5c-4.4,0-7.9-1.6-10.2-4.7v16.6h-3.6v-45h3.3l0.2,4.6
		c2.3-3.5,5.7-5.2,10.2-5.2c3.9,0,6.9,1.5,9.1,4.4c2.2,2.9,3.3,7,3.3,12.3L288.3,197L288.3,197z M284.7,196.4c0-4.1-0.9-7.4-2.6-9.8
		c-1.7-2.4-4.1-3.6-7.1-3.6c-2.2,0-4.1,0.5-5.7,1.6c-1.6,1.1-2.8,2.6-3.6,4.6v15.6c0.9,1.9,2.1,3.3,3.7,4.3c1.6,1,3.5,1.5,5.7,1.5
		c3,0,5.4-1.2,7.1-3.6C283.9,204.5,284.7,201,284.7,196.4z"/>
	<path class="st0" d="M294.3,196.2c0-3.1,0.6-5.9,1.8-8.4c1.2-2.5,2.9-4.5,5.1-5.8c2.2-1.4,4.7-2.1,7.5-2.1c4.3,0,7.8,1.5,10.5,4.6
		s4,7.1,4,12.1v0.8c0,3.1-0.6,6-1.8,8.5c-1.2,2.5-2.9,4.5-5.1,5.8s-4.7,2-7.5,2c-4.3,0-7.8-1.5-10.5-4.6c-2.7-3-4-7.1-4-12.1
		L294.3,196.2L294.3,196.2z M297.9,197.2c0,3.9,1,7.1,3,9.6c2,2.5,4.7,3.7,7.9,3.7c3.2,0,5.9-1.2,7.9-3.7c2-2.5,3-5.8,3-9.9v-0.7
		c0-2.5-0.5-4.8-1.4-6.8c-0.9-2.1-2.2-3.7-3.9-4.8c-1.7-1.1-3.6-1.7-5.7-1.7c-3.2,0-5.8,1.3-7.8,3.8c-2,2.5-3,5.8-3,9.9L297.9,197.2
		L297.9,197.2z"/>
	<path class="st0" d="M334.8,213h-3.6v-46.2h3.6V213z"/>
	<path class="st0" d="M354.8,207.8l9.5-27.3h3.9l-13.9,38l-0.7,1.7c-1.8,3.9-4.5,5.9-8.3,5.9c-0.9,0-1.8-0.1-2.8-0.4l0-3l1.9,0.2
		c1.8,0,3.2-0.4,4.3-1.3c1.1-0.9,2-2.4,2.8-4.5l1.6-4.4l-12.3-32.2h3.9L354.8,207.8z"/>
	<path class="st0" d="M371.9,196.4c0-5.1,1.1-9.1,3.4-12.1c2.3-3,5.3-4.5,9.2-4.5c4.4,0,7.8,1.8,10.1,5.3l0.2-4.7h3.4v31.9
		c0,4.2-1.2,7.5-3.5,9.9s-5.5,3.7-9.5,3.7c-2.3,0-4.4-0.5-6.5-1.5c-2.1-1-3.7-2.4-4.9-4l2-2.2c2.5,3.1,5.6,4.7,9.1,4.7
		c3,0,5.3-0.9,7-2.7c1.7-1.8,2.6-4.2,2.6-7.4v-4.1c-2.3,3.2-5.7,4.8-10.1,4.8c-3.8,0-6.8-1.5-9.1-4.5c-2.3-3-3.4-7.1-3.4-12.2
		L371.9,196.4L371.9,196.4z M375.6,197c0,4.1,0.8,7.4,2.5,9.8s4,3.6,7,3.6c4.4,0,7.6-2,9.4-5.9v-15.1c-0.8-2.1-2.1-3.7-3.6-4.8
		c-1.6-1.1-3.5-1.6-5.7-1.6c-3,0-5.4,1.2-7.1,3.6C376.4,188.9,375.6,192.4,375.6,197z"/>
	<path class="st0" d="M411.5,213h-3.6v-46.2h3.6V213z"/>
	<path class="st0" d="M419.3,196.2c0-3.1,0.6-5.9,1.8-8.4c1.2-2.5,2.9-4.5,5.1-5.8c2.2-1.4,4.7-2.1,7.5-2.1c4.3,0,7.8,1.5,10.5,4.6
		s4,7.1,4,12.1v0.8c0,3.1-0.6,6-1.8,8.5c-1.2,2.5-2.9,4.5-5.1,5.8c-2.2,1.4-4.7,2-7.5,2c-4.3,0-7.8-1.5-10.5-4.6
		c-2.7-3-4-7.1-4-12.1L419.3,196.2L419.3,196.2z M422.9,197.2c0,3.9,1,7.1,3,9.6c2,2.5,4.7,3.7,7.9,3.7c3.2,0,5.9-1.2,7.9-3.7
		c2-2.5,3-5.8,3-9.9v-0.7c0-2.5-0.5-4.8-1.4-6.8c-0.9-2.1-2.2-3.7-3.9-4.8c-1.7-1.1-3.6-1.7-5.7-1.7c-3.2,0-5.8,1.3-7.8,3.8
		c-2,2.5-3,5.8-3,9.9L422.9,197.2L422.9,197.2z"/>
	<path class="st0" d="M461.4,172.1v8.3h6.7v2.9h-6.7v21.7c0,1.8,0.3,3.2,1,4c0.7,0.9,1.7,1.3,3.3,1.3c0.6,0,1.6-0.1,2.9-0.3l0.2,2.9
		c-0.9,0.3-2.2,0.5-3.8,0.5c-2.5,0-4.3-0.7-5.4-2.2c-1.1-1.4-1.7-3.5-1.7-6.3v-21.7h-6v-2.9h6v-8.3
		C457.8,172.1,461.4,172.1,461.4,172.1z"/>
</g>
<g>
	<path class="st0" d="M281.3,153.8c-0.1,1.7-0.6,3.2-1.5,4.6s-2.1,2.3-3.7,3.1c-1.6,0.7-3.4,1.1-5.5,1.1c-3.4,0-6.1-1.1-8-3.2
		c-1.9-2.1-2.9-5.1-2.9-9v-1.2c0-2.4,0.4-4.5,1.3-6.4c0.9-1.8,2.1-3.2,3.8-4.2c1.7-1,3.6-1.5,5.7-1.5c3.1,0,5.6,0.8,7.5,2.4
		s3,3.8,3.2,6.5h-6.2c0-1.5-0.4-2.6-1.2-3.2c-0.7-0.7-1.9-1-3.4-1c-1.5,0-2.7,0.6-3.4,1.7c-0.7,1.1-1.1,2.9-1.1,5.3v1.8
		c0,2.6,0.3,4.5,1,5.7c0.7,1.1,1.9,1.7,3.6,1.7c1.4,0,2.5-0.3,3.3-1c0.8-0.6,1.2-1.7,1.2-3.1L281.3,153.8L281.3,153.8z"/>
	<path class="st0" d="M298.8,157.5h-8.5l-1.5,4.6h-6.6l9.5-24.7h5.8l9.5,24.7h-6.7L298.8,157.5z M291.8,152.9h5.5l-2.8-8.6
		L291.8,152.9z"/>
	<path class="st0" d="M315.1,157.5h10.8v4.6h-17v-24.7h6.2V157.5z"/>
	<path class="st0" d="M336.7,137.4l5.8,17.2l5.7-17.2h8.2v24.7h-6.2v-5.8l0.6-11.8l-6.2,17.6h-4.1l-6.2-17.6l0.6,11.8v5.8h-6.2
		v-24.7L336.7,137.4L336.7,137.4z"/>
	<path class="st0" d="M373.6,155.5c0-0.9-0.3-1.6-1-2c-0.6-0.5-1.8-1-3.4-1.5c-1.6-0.5-2.9-1-4-1.5c-3.3-1.6-5-3.7-5-6.5
		c0-1.4,0.4-2.6,1.2-3.6c0.8-1,2-1.9,3.5-2.4s3.2-0.9,5.1-0.9c1.9,0,3.5,0.3,5,1c1.5,0.6,2.6,1.5,3.4,2.7c0.8,1.2,1.2,2.5,1.2,4
		h-6.2c0-1-0.3-1.8-1-2.3c-0.6-0.6-1.5-0.8-2.6-0.8c-1.1,0-2,0.2-2.6,0.7c-0.6,0.5-1,1.1-1,1.8c0,0.6,0.4,1.2,1.1,1.7
		c0.7,0.5,2,1,3.7,1.6c1.8,0.6,3.2,1.1,4.4,1.8c2.8,1.5,4.2,3.7,4.2,6.4c0,2.2-0.8,3.9-2.5,5.1c-1.7,1.2-4,1.9-7,1.9
		c-2.1,0-4-0.4-5.7-1.1c-1.7-0.7-3-1.7-3.8-3c-0.9-1.3-1.3-2.7-1.3-4.3h6.2c0,1.3,0.4,2.3,1.1,2.9c0.7,0.6,1.9,0.9,3.5,0.9
		c1,0,1.8-0.2,2.4-0.6C373.3,156.9,373.6,156.3,373.6,155.5z"/>
	<path class="st0" d="M403.2,142h-7.7v20.1h-6.2V142h-7.6v-4.6h21.5L403.2,142L403.2,142z"/>
	<path class="st0" d="M418.4,157.5h-8.5l-1.5,4.6h-6.6l9.5-24.7h5.8l9.5,24.7h-6.7L418.4,157.5z M411.4,152.9h5.5l-2.8-8.6
		L411.4,152.9z"/>
	<path class="st0" d="M446.6,142h-7.7v20.1h-6.2V142H425v-4.6h21.5L446.6,142L446.6,142z"/>
	<path class="st0" d="M465.2,151.6h-9.8v5.9h11.5v4.6h-17.8v-24.7H467v4.6h-11.6v5.2h9.8V151.6z"/>
</g>
</svg>
